<svg width="19" height="22" viewBox="0 0 19 22" fill="none" xmlns="http://www.w3.org/2000/svg">
<path d="M18.5093 17.1449C18.1766 17.9135 17.7828 18.6211 17.3265 19.2715C16.7046 20.1583 16.1953 20.7721 15.8029 21.113C15.1945 21.6724 14.5427 21.959 13.8447 21.9753C13.3436 21.9753 12.7393 21.8327 12.0358 21.5434C11.3301 21.2555 10.6815 21.113 10.0885 21.113C9.46653 21.113 8.79949 21.2555 8.08601 21.5434C7.37144 21.8327 6.79579 21.9834 6.35567 21.9984C5.68632 22.0269 5.01914 21.7322 4.35319 21.113C3.92814 20.7422 3.39649 20.1067 2.7596 19.2063C2.07626 18.2449 1.51446 17.13 1.07434 15.8589C0.602988 14.486 0.366699 13.1565 0.366699 11.8694C0.366699 10.3951 0.685282 9.12345 1.3234 8.05784C1.8249 7.20191 2.49208 6.52672 3.3271 6.03105C4.16212 5.53539 5.06436 5.2828 6.036 5.26664C6.56765 5.26664 7.26484 5.43109 8.13123 5.75429C8.99518 6.07858 9.54991 6.24303 9.79312 6.24303C9.97496 6.24303 10.5912 6.05074 11.6359 5.66738C12.6238 5.31186 13.4576 5.16466 14.1407 5.22264C15.9916 5.37202 17.3822 6.10167 18.307 7.41619C16.6516 8.4192 15.8327 9.82403 15.849 11.6262C15.864 13.03 16.3732 14.1981 17.3741 15.1256C17.8276 15.5561 18.3341 15.8888 18.8977 16.1251C18.7755 16.4795 18.6465 16.819 18.5093 17.1449ZM14.2643 0.440369C14.2643 1.54062 13.8623 2.56792 13.0611 3.51878C12.0942 4.64917 10.9247 5.30236 9.65651 5.19929C9.64035 5.06729 9.63098 4.92837 9.63098 4.78239C9.63098 3.72615 10.0908 2.59576 10.9073 1.67152C11.315 1.20356 11.8335 0.814453 12.4622 0.504058C13.0896 0.198295 13.6831 0.0292007 14.2412 0.000244141C14.2575 0.147331 14.2643 0.294426 14.2643 0.440355V0.440369Z" fill="black"/>
</svg>
