<svg width="25" height="24" viewBox="0 0 25 24" fill="none" xmlns="http://www.w3.org/2000/svg">
<g clip-path="url(#clip0_451_3202)">
<path d="M24.0994 12.2765C24.0994 11.4608 24.0332 10.6406 23.8921 9.83813H12.5734V14.4591H19.0551C18.7861 15.9495 17.9219 17.2679 16.6564 18.1056V21.104H20.5234C22.7942 19.014 24.0994 15.9274 24.0994 12.2765Z" fill="#2F98D7"/>
<path d="M12.5734 24.0008C15.8098 24.0008 18.5392 22.9382 20.5278 21.1039L16.6608 18.1055C15.5849 18.8375 14.196 19.252 12.5778 19.252C9.44714 19.252 6.79272 17.1399 5.8403 14.3003H1.84985V17.3912C3.88697 21.4434 8.03615 24.0008 12.5734 24.0008Z" fill="#34A853"/>
<path d="M5.8359 14.3002C5.33324 12.8099 5.33324 11.196 5.8359 9.70569V6.61475H1.84987C0.147864 10.0055 0.147864 14.0004 1.84987 17.3912L5.8359 14.3002Z" fill="#FBBC04"/>
<path d="M12.5734 4.74966C14.2842 4.7232 15.9377 5.36697 17.1767 6.54867L20.6027 3.12262C18.4334 1.0855 15.5541 -0.034466 12.5734 0.000808666C8.03615 0.000808666 3.88697 2.55822 1.84985 6.61481L5.83589 9.70575C6.7839 6.86173 9.44273 4.74966 12.5734 4.74966Z" fill="#EA4335"/>
</g>
<defs>
<clipPath id="clip0_451_3202">
<rect width="24" height="24" fill="white" transform="translate(0.333374)"/>
</clipPath>
</defs>
</svg>
